<svg width="30" height="30" fill="none" xmlns="http://www.w3.org/2000/svg"><g clip-path="url(#clip0)" fill="#D1A954"><path d="M22.763 0H7.237c-1.047 0-1.9.852-1.9 1.9v26.2c0 1.048.853 1.9 1.9 1.9h15.526a1.902 1.902 0 001.899-1.9V1.9c0-1.048-.852-1.9-1.9-1.9zM6.29 4.774h17.42v19.84H6.29V4.774zM7.237.952h15.526c.522 0 .947.425.947.947v2.24H6.29V1.9c0-.522.425-.947.947-.947zm15.526 28.096H7.237a.949.949 0 01-.947-.947v-2.853h17.42v2.853a.949.949 0 01-.947.947z"/><path d="M15 25.669c-.86 0-1.559.7-1.559 1.559s.7 1.558 1.559 1.558a1.56 1.56 0 000-3.118zm0 2.483a.925.925 0 010-1.849.925.925 0 010 1.849zM12.843 3.023h4.314a.317.317 0 100-.634h-4.314a.317.317 0 100 .634zm-1.143 0a.32.32 0 00.318-.317.32.32 0 00-.542-.225.32.32 0 000 .45.32.32 0 00.225.092z"/></g><defs><clipPath id="clip0"><path fill="#fff" d="M0 0h30v30H0z"/></clipPath></defs></svg>